<svg xmlns="http://www.w3.org/2000/svg" viewBox="0 0 516 349" width="516" height="349">
  <style>
    @keyframes owl-glance {
      0%, 6% { transform: translate(0, 0); }
      11%, 30% { transform: translate(-14px, 7px); }
      37%, 42% { transform: translate(0, 0); }
      49%, 68% { transform: translate(14px, 7px); }
      76%, 100% { transform: translate(0, 0); }
    }
    .pupils { animation: owl-glance 5.5s ease-in-out infinite; }
    @media (prefers-reduced-motion: reduce) { .pupils { animation: none; } }
  </style>
  <path fill="none" stroke="#dba95f" stroke-width="4" stroke-linejoin="round" d="M 259.5 19 L 262 22.5 L 263 25.5 L 267 30.5 L 268 33.5 L 270 35.5 L 271 38.5 L 276.5 46 L 279.5 45 L 292.5 36 L 306.5 29 L 312 28 L 312 31.5 L 311 32.5 L 311 37.5 L 310 38.5 L 310 42.5 L 309 43.5 L 309 47.5 L 308 48.5 L 308 50.5 L 307 52.5 L 308.5 54 L 312.5 54 Q 313.5 56 317.5 55 L 318.5 56 L 320.5 56 L 321.5 57 L 323.5 57 L 324.5 58 L 329.5 59 L 334.5 62 L 336.5 62 L 344.5 66 L 346.5 68 L 349.5 69 L 351.5 71 L 355.5 73 L 362.5 79 L 363.5 79 L 382 96.5 L 382 97.5 L 392 108.5 L 392 109.5 L 398 116.5 L 403 124.5 L 402.5 125 L 395.5 125 L 394.5 124 L 387.5 124 L 386.5 123 L 377.5 123 L 376.5 122 L 354.5 122 L 353.5 123 Q 350.3 122.2 349.5 124 L 345.5 124 L 344.5 125 L 342.5 125 L 341.5 126 L 336.5 127 L 333.5 129 L 331.5 129 L 326.5 132 L 324.5 132 L 320.5 134 L 318.5 136 L 311.5 139 L 309.5 141 L 305.5 143 L 291 156.5 L 291 157.5 L 284 164.5 L 284 165.5 L 275 176.5 L 275 177.5 L 263.5 194 L 259.5 196 L 254.5 196 L 249 189.5 L 241 176.5 L 231 164.5 L 228 159.5 L 213.5 145 L 212.5 145 L 204.5 139 L 201.5 138 L 199.5 136 L 191.5 132 L 189.5 132 L 186.5 130 L 184.5 130 L 181.5 128 L 179.5 128 L 176.5 126 L 174.5 126 L 173.5 125 L 171.5 125 L 167.5 123 L 162.5 123 L 161.5 122 L 138.5 122 L 137.5 123 L 128.5 123 L 127.5 124 L 120.5 124 L 119.5 125 L 112.5 125 L 111.5 126 L 111 124.5 L 113 122.5 L 116 116.5 L 125 105.5 L 125 104.5 L 145.5 83 L 146.5 83 L 151.5 78 L 152.5 78 L 162.5 70 L 181.5 60 L 183.5 60 L 186.5 58 L 188.5 58 L 192.5 56 L 195.5 56 L 196.5 55 Q 199.8 55.8 200.5 54 L 204.5 54 L 205.5 53 L 209 53 L 209 50.5 L 207 46.5 L 207 43.5 L 206 42.5 L 206 39.5 L 205 38.5 Q 206 34.5 204 33.5 L 204 28.5 L 203 27.5 L 204.5 27 L 205.5 28 L 210.5 29 L 220.5 34 L 222.5 36 L 225.5 37 L 227.5 39 L 230.5 40 L 232.5 42 L 236.5 44 L 239.5 47 L 241 47 L 241 45.5 L 249 34.5 L 250 31.5 L 253 28.5 L 255 24.5 L 259.5 19 Z"/>
  <path fill="none" stroke="#dba95f" stroke-width="4" stroke-linejoin="round" d="M 70.5 157 L 72.5 158 L 74.5 158 L 75.5 159 L 78.5 159 L 82.5 161 L 110.5 161 L 111.5 162 L 121.5 162 L 122.5 163 L 130.5 163 L 131.5 164 L 136.5 164 L 137.5 165 L 141.5 165 L 142.5 166 Q 145.8 165.3 146.5 167 L 150.5 167 Q 151.5 169 155.5 168 L 156.5 169 L 159.5 169 L 160.5 170 L 167.5 171 L 168.5 172 L 170.5 172 L 174.5 174 L 177.5 174 L 180.5 176 L 182.5 176 L 188.5 179 L 190.5 179 L 193.5 181 L 195.5 181 L 219.5 193 L 221.5 195 L 228.5 199 L 241.5 212 L 242.5 212 L 248.5 217 Q 251 216.5 251.5 218 L 260.5 218 L 261.5 217 L 263.5 217 L 265.5 216 L 267.5 214 L 271.5 212 L 280.5 204 L 281.5 204 L 289.5 198 L 294.5 196 L 296.5 194 L 304.5 190 L 306.5 188 L 311.5 186 L 313.5 184 L 319.5 181 L 321.5 181 L 328.5 177 L 333.5 176 L 336.5 174 L 339.5 174 L 340.5 173 L 342.5 173 L 346.5 171 L 349.5 171 L 353.5 169 L 356.5 169 L 357.5 168 L 361.5 168 L 362.5 167 Q 366.5 168 367.5 166 L 372.5 166 L 373.5 165 L 378.5 165 L 379.5 164 L 385.5 164 L 386.5 163 L 393.5 163 L 394.5 162 L 406.5 162 L 407.5 161 L 431.5 161 L 432.5 160 L 434.5 160 L 435.5 159 L 437.5 159 L 438.5 158 L 441.5 158 L 443.5 157 L 443.5 158 L 441.5 159 L 438.5 159 L 437.5 160 L 435.5 160 L 434.5 161 L 432 161.5 L 433 162.5 L 434 167.5 L 436 170.5 L 436 172.5 L 437 173.5 L 437 175.5 L 439 179.5 L 439 182.5 L 440 183.5 L 440 186.5 L 441 187.5 L 441 190.5 L 442 191.5 Q 441.3 194.8 443 195.5 L 443 199.5 Q 445 200.5 444 204.5 L 445 205.5 L 445 211.5 L 446 212.5 L 446 220.5 L 447 221.5 L 447 245.5 L 446 246.5 L 446 253.5 L 445 254.5 L 445 259.5 L 444 260.5 L 444 264.5 Q 442.2 265.4 443 268 L 448.5 270 L 450.5 272 L 456.5 275 L 465.5 283 L 466.5 283 L 476 292.5 L 476 293.5 L 484 302.5 L 484 303.5 L 494 317.5 L 496 322.5 L 498 324.5 L 501 330.5 L 500.5 331 L 11.5 331 L 11 330.5 L 13 328.5 L 19 316.5 L 21 314.5 L 22 311.5 L 25 308.5 L 29 301.5 L 38 291.5 L 38 290.5 L 46.5 282 L 47.5 282 L 56.5 274 L 69 266.5 L 69 263.5 L 68 262.5 Q 68.8 259.3 67 258.5 L 67 254.5 L 66 253.5 L 66 247.5 L 65 246.5 L 65 234.5 Q 63 233.5 64 229.5 L 65 228.5 L 65 216.5 L 66 215.5 L 66 209.5 L 67 208.5 L 67 204.5 L 68 203.5 L 68 200.5 L 69 199.5 L 70 192.5 L 71 191.5 Q 70.5 189 72 188.5 L 72 185.5 L 74 182.5 L 75 177.5 L 81 165.5 L 81 163.5 Q 82.5 162.8 82 161 L 72.5 159 L 70 157.5 L 70.5 157 Z M 108 188 L 108 190 L 113 193 L 115 193 L 118 195 L 124 195 L 125 194 L 123 191 L 121 190 L 119 190 L 118 189 L 111 189 Q 110 188 108 188 Z M 403 188 L 402 189 L 395 189 L 391 191 L 388 191 L 388 195 L 394 195 L 397 193 L 399 193 L 403 191 L 404 190 Q 405 187 403 188 Z M 152 189 L 146 195 L 146 196 L 143 199 L 142 202 L 140 204 L 140 206 L 138 209 L 138 212 L 137 213 L 137 216 L 136 217 L 136 229 Q 138 229 137 234 L 140 240 L 140 242 L 141 244 L 145 249 L 145 250 L 153 257 L 157 259 L 159 261 L 168 265 Q 171 264 172 266 L 177 266 L 178 267 L 186 267 L 187 266 L 192 266 Q 192 264 196 265 L 207 260 L 210 257 L 211 257 L 218 250 L 224 240 L 225 235 L 226 234 L 226 229 L 227 228 L 227 219 L 214 214 L 213 211 L 209 206 L 209 205 L 205 200 L 201 198 L 199 196 L 195 194 L 193 194 L 192 193 L 188 193 L 187 192 L 177 192 Q 176 194 172 193 L 171 194 Q 168 195 168 193 L 165 193 L 161 191 L 159 191 L 158 190 L 155 190 Q 154 189 152 189 Z M 356 190 Q 355 192 352 191 L 351 192 L 348 192 L 347 193 L 344 193 L 343 194 L 334 194 L 333 193 L 332 194 L 325 194 L 321 196 L 319 196 L 311 201 L 303 210 L 302 213 L 300 213 L 293 217 L 291 217 Q 290 219 288 218 L 288 232 L 289 233 L 290 238 L 291 239 L 291 241 L 293 245 L 298 251 L 298 252 L 303 256 L 304 256 L 310 261 L 319 265 Q 322 264 323 266 L 327 266 L 328 267 L 338 267 L 339 266 L 343 266 Q 343 264 347 265 L 350 263 L 352 263 L 356 261 L 363 255 L 364 255 L 372 245 L 375 239 Q 375 236 376 236 L 376 233 L 377 232 L 377 215 Q 375 214 376 211 L 372 202 L 367 196 L 367 195 L 362 190 L 356 190 Z M 406 207 Q 405 209 401 208 L 400 209 L 396 209 L 394 211 L 396 213 L 399 213 L 400 212 L 403 212 Q 403 211 406 211 L 409 209 Q 409 207 406 207 Z M 103 208 Q 101 209 104 210 L 108 212 L 110 212 L 111 213 Q 117 214 118 211 L 117 209 Q 112 210 112 208 L 103 208 Z M 112 224 L 101 229 L 98 232 L 99 232 L 105 232 Q 105 231 108 231 L 114 227 Q 115 223 112 224 Z M 398 224 L 396 226 L 402 230 L 404 231 L 406 231 L 407 232 L 413 232 L 413 232 L 411 229 L 401 224 L 398 224 Z M 119 238 L 117 240 L 116 240 L 109 247 L 109 248 L 111 248 L 117 245 L 122 240 L 122 238 L 119 238 Z M 388 238 L 388 240 L 392 243 L 400 248 L 401 246 L 394 239 L 392 238 L 388 238 Z M 244 248 L 242 250 L 242 265 L 243 266 L 243 271 Q 245 271 244 275 L 245 276 L 246 281 L 249 286 L 249 288 L 252 294 L 258 301 L 265 289 L 265 287 L 267 284 L 268 279 L 269 278 Q 268 273 270 273 L 270 269 L 271 268 L 271 248 L 244 248 Z M 129 253 L 125 255 L 119 261 L 119 262 L 121 262 Q 122 260 126 259 L 130 255 L 129 253 Z M 381 253 L 381 256 L 390 262 L 392 262 Q 391 261 391 259 L 390 259 L 385 254 L 381 253 Z"/>
  <path fill="none" stroke="#ecc98f" stroke-width="4" stroke-linejoin="round" d="M 500.5 111 Q 503.1 110.2 502 113.5 Q 503.8 114.3 502.5 115 Q 501.7 113.3 501 114.5 L 500 116.5 Q 501.7 117.3 500.5 118 Q 499.7 116.2 499 117.5 L 499 118.5 L 497 120.5 Q 499.3 121.8 496.5 123 Q 495.7 121.2 495 122.5 L 495 123.5 L 493 125.5 L 494 126.5 L 488.5 132 L 487.5 131 L 484.5 134 L 483 134.5 L 484 135.5 L 481.5 138 Q 480.5 136 479.5 138 L 478 138.5 Q 480.3 139.8 477.5 141 Q 476.8 139.2 476 140.5 L 474.5 143 L 472.5 142 Q 471.2 142.7 473 143.5 L 471.5 145 L 469.5 144 L 469.5 146 Q 468.5 144 467.5 146 L 466 146.5 Q 467.8 147.3 466.5 148 L 464.5 147 L 464.5 149 L 462.5 148 L 462.5 150 Q 461.8 148.2 461 149.5 L 460.5 151 Q 459.7 149.2 459 150.5 L 458.5 152 Q 457.8 150.2 457 151.5 L 456.5 153 L 454.5 152 L 454.5 154 L 452.5 153 L 452.5 155 L 450.5 154 L 450.5 156 Q 450 154.5 447.5 155 L 447.5 157 L 445.5 156 L 445.5 158 L 442.5 157 L 442.5 159 Q 441.8 157.3 438.5 158 L 438.5 159 L 440 159.5 L 438.5 160 Q 438 158.5 435.5 159 L 435.5 161 Q 435 159.5 432.5 160 L 432.5 162 L 431.5 161 L 407.5 161 L 406.5 162 L 394.5 162 L 393.5 163 L 386.5 163 L 385.5 164 L 379.5 164 L 378.5 165 L 373.5 165 L 372.5 166 L 367.5 166 L 366.5 167 L 362.5 167 L 361.5 168 L 357.5 168 Q 356.8 169.7 353.5 169 L 352.5 170 Q 350 169.5 349.5 171 L 346.5 171 L 345.5 172 L 343.5 172 L 339.5 174 L 336.5 174 L 333.5 176 L 328.5 177 L 321.5 181 L 319.5 181 L 313.5 184 L 311.5 186 L 306.5 188 L 304.5 190 L 301.5 191 L 294.5 196 L 289.5 198 L 287.5 200 L 280.5 204 L 276.5 208 L 275.5 208 L 271.5 212 L 270.5 212 L 265.5 216 L 263.5 217 L 261.5 217 L 260.5 218 L 251.5 218 Q 251 216.5 248.5 217 L 242.5 212 L 241.5 212 L 228.5 199 L 227.5 199 L 219.5 193 L 195.5 181 L 193.5 181 L 185.5 177 L 180.5 176 L 177.5 174 L 174.5 174 L 173.5 173 L 171.5 173 L 167.5 171 L 164.5 171 L 163.5 170 L 160.5 170 L 159.5 169 Q 156.3 169.7 155.5 168 L 151.5 168 L 150.5 167 L 146.5 167 L 145.5 166 Q 142.3 166.8 141.5 165 L 137.5 165 L 136.5 164 L 131.5 164 L 130.5 163 L 122.5 163 L 121.5 162 L 111.5 162 L 110.5 161 L 82.5 161 Q 81.7 162.8 81 161.5 Q 82.8 160.7 81.5 160 L 79.5 160 L 77.5 161 L 77.5 160 L 79 159.5 L 75.5 159 Q 74.8 160.7 74 159.5 Q 75.8 158.8 74.5 158 Q 72 157.5 71.5 159 L 71.5 157 L 68.5 158 L 68.5 156 L 65.5 157 L 65.5 156 L 67 155.5 L 64.5 155 Q 63.7 156.7 63 155.5 Q 64.8 154.7 63.5 154 L 61.5 155 L 61 153 Q 59.3 152.5 58.5 154 L 58.5 152 L 56.5 153 L 56.5 151 L 54.5 152 L 54.5 150 L 52.5 151 L 52.5 149 L 50.5 150 L 50.5 148 L 48.5 147 Q 47.7 148.8 47 147.5 Q 48.7 146.8 47.5 146 L 45.5 147 L 45.5 145 L 43.5 146 L 41.5 143 Q 40.7 144.8 40 143.5 Q 41.7 142.8 40.5 142 L 38.5 141 Q 37.3 143.3 36 140.5 L 35.5 139 Q 34.3 141.3 33 138.5 Q 34.8 137.8 33.5 137 L 32.5 137 L 30.5 135 L 29.5 136 L 26 132.5 Q 27.1 129.2 24.5 130 L 18.5 123 L 17.5 124 L 15 121.5 Q 17 120.5 15 119.5 L 14.5 118 Q 13.3 120.3 12 117.5 L 13 115.5 L 11.5 114 Q 10.7 115.7 10 114.5 L 11.5 113 L 13.5 113 L 15.5 112 L 15.5 114 L 17.5 114 L 19.5 113 L 19.5 114 L 18 114.5 L 21.5 115 Q 22.3 113.3 23 114.5 Q 21.2 115.3 22.5 116 L 24.5 116 L 26.5 115 L 26.5 117 L 28.5 117 L 30.5 116 L 30.5 117 L 29 117.5 L 32.5 118 L 34.5 117 L 34.5 118 L 33 118.5 L 36.5 119 L 38.5 118 L 38.5 119 L 37 119.5 L 40.5 120 Q 41 118.5 43.5 119 L 43.5 120 L 42 120.5 L 45.5 121 Q 46 119.5 48.5 120 L 48.5 121 L 47 121.5 L 47.5 122 L 51.5 122 L 53.5 121 L 53.5 122 L 52 122.5 L 52.5 123 L 56.5 123 Q 57.2 121.3 60.5 122 L 60.5 123 L 58 123.5 L 58.5 124 L 64.5 124 Q 65 122.5 67.5 123 L 67.5 124 L 66 124.5 L 66.5 125 L 73.5 125 L 74.5 124 L 79.5 124 L 79.5 125 L 76 125.5 L 76.5 126 L 88.5 126 L 89.5 125 L 110.5 125 Q 111.5 127 112.5 125 L 119.5 125 L 120.5 124 L 127.5 124 L 128.5 123 L 137.5 123 L 138.5 122 L 161.5 122 L 162.5 123 L 167.5 123 L 168.5 124 L 170.5 124 L 171.5 125 L 176.5 126 L 179.5 128 L 181.5 128 L 184.5 130 L 186.5 130 L 189.5 132 L 191.5 132 L 199.5 136 L 201.5 138 L 204.5 139 L 206.5 141 L 213.5 145 L 228 159.5 L 231 164.5 L 241 176.5 L 249 189.5 L 254.5 196 L 259.5 196 L 265 192.5 L 275 176.5 L 278 173.5 L 278 172.5 L 281 169.5 L 284 164.5 L 299.5 148 L 300.5 148 L 305.5 143 L 306.5 143 L 311.5 139 L 318.5 136 L 320.5 134 L 324.5 132 L 326.5 132 L 336.5 127 L 338.5 127 L 339.5 126 L 341.5 126 L 345.5 124 L 349.5 124 Q 350.3 122.2 353.5 123 L 354.5 122 L 376.5 122 L 377.5 123 L 386.5 123 L 387.5 124 L 394.5 124 L 395.5 125 L 419.5 125 L 420.5 126 L 435.5 126 L 435.5 125 L 431.5 125 L 431 124.5 L 431.5 124 L 436.5 124 L 437.5 125 L 445.5 125 L 445.5 124 L 443 123.5 L 445.5 123 L 446.5 124 L 452.5 124 L 452.5 123 L 451 122.5 L 453.5 122 L 454.5 123 L 459.5 123 L 459.5 122 L 458 121.5 L 459.5 121 L 460.5 122 L 465.5 122 L 465.5 121 L 463 120.5 L 465.5 120 Q 466.3 121.8 469.5 121 L 469.5 119 L 471.5 120 L 474.5 120 L 474.5 119 L 473 118.5 L 474.5 118 Q 475.3 119.8 478.5 119 L 478.5 117 Q 479.3 118.8 482.5 118 L 482.5 116 Q 483.3 117.8 486.5 117 L 486.5 115 Q 487.3 116.8 490.5 116 L 490.5 115 L 489 114.5 L 490.5 114 Q 491 115.5 493.5 115 L 493.5 113 L 495.5 114 L 497.5 114 L 497.5 113 L 496 112.5 L 497.5 112 Q 498 113.5 500.5 113 L 500.5 111 Z M 94 126 L 94 127 L 106 127 L 106 127 L 106 126 L 94 126 Z"/>
  <path fill="#dba95f" fill-rule="evenodd" d="M 9.5 111 L 14 112.5 L 11 113.5 L 13 115.5 L 15 119.5 L 24.5 130 Q 26.8 129.3 26 131.5 L 25.5 132 L 18 124.5 L 18 123.5 L 11 115.5 L 9 111.5 L 9.5 111 Z"/>
  <path fill="#dba95f" fill-rule="evenodd" d="M 502 111 L 504 111.5 L 502 115.5 L 496 122.5 L 496 123.5 L 484.5 135 L 483.5 135 L 476.5 141 L 476 140.5 L 478.5 138 L 479.5 138 L 483.5 134 L 484.5 134 L 495 123.5 L 495 122.5 L 501 115.5 L 502 113.5 L 502 111 Z"/>
  <path fill="#dba95f" fill-rule="evenodd" d="M 491.5 114 L 494 114.5 L 491.5 115 L 490.5 116 L 487.5 116 L 486.5 117 L 483.5 117 L 482.5 118 L 479.5 118 L 478.5 119 L 475.5 119 L 474.5 120 L 471.5 120 L 471.5 119 L 474.5 119 L 475.5 118 L 478.5 118 L 479.5 117 L 482.5 117 L 483.5 116 L 486.5 116 L 487.5 115 Q 490.8 115.8 491.5 114 Z"/>
  <path fill="#dba95f" fill-rule="evenodd" d="M 26.5 116 L 28.5 116 L 29.5 117 L 32.5 117 L 33.5 118 L 36.5 118 L 37.5 119 L 41 119.5 L 37.5 120 L 36.5 119 L 33.5 119 L 32.5 118 L 29.5 118 Q 29 116.5 26.5 117 L 26.5 116 Z"/>
  <path fill="#dba95f" fill-rule="evenodd" d="M 466.5 120 L 470 120.5 L 466.5 121 L 465.5 122 L 460.5 122 L 459.5 123 L 454.5 123 L 454.5 122 L 459.5 122 L 460.5 121 L 465.5 121 L 466.5 120 Z"/>
  <path fill="#dba95f" fill-rule="evenodd" d="M 27.5 132 L 36 139.5 L 35.5 140 L 33.5 138 L 32.5 138 L 27 132.5 L 27.5 132 Z"/>
  <path fill="#dba95f" fill-rule="evenodd" d="M 474.5 141 Q 476 142 473.5 143 L 461.5 150 Q 460 149 462.5 148 L 467.5 146 L 474.5 141 Z"/>
  <path fill="#dba95f" fill-rule="evenodd" d="M 43.5 144 L 47.5 146 L 49.5 148 L 61 153.5 L 59.5 154 L 49.5 149 L 47.5 147 L 44.5 146 Q 42 145 43.5 144 Z"/>
  <path fill="#dba95f" fill-rule="evenodd" d="M 454.5 152 L 456 152.5 L 449.5 156 L 447.5 156 L 445.5 157 L 445.5 156 L 447.5 155 L 449.5 155 L 454.5 152 Z"/>
  <path fill="#ecc98f" fill-rule="evenodd" d="M 108 188 Q 109.8 187.5 110.5 189 L 117.5 189 L 118.5 190 L 120.5 190 L 122.5 191 L 125 193.5 L 123.5 195 L 117.5 195 L 114.5 193 L 112.5 193 L 108 189.5 L 108 188 Z"/>
  <path fill="#ecc98f" fill-rule="evenodd" d="M 402.5 188 Q 404.8 187.3 404 189.5 L 402.5 191 L 398.5 193 L 396.5 193 L 393.5 195 L 388 195 L 388 191 L 390.5 191 L 394.5 189 L 401.5 189 L 402.5 188 Z"/>
  <path fill="#ecc98f" fill-rule="evenodd" d="M 405.5 207 Q 408.5 206.5 409 208.5 L 405.5 211 Q 403 210.5 402.5 212 L 399.5 212 L 398.5 213 L 395.5 213 L 394 210.5 L 395.5 209 L 399.5 209 L 400.5 208 Q 404.5 209 405.5 207 Z"/>
  <path fill="#ecc98f" fill-rule="evenodd" d="M 102.5 208 L 111.5 208 Q 112.5 210 116.5 209 L 118 210.5 Q 116.8 214.3 110.5 213 L 109.5 212 L 107.5 212 L 103.5 210 Q 101 209 102.5 208 Z"/>
  <path fill="#ecc98f" fill-rule="evenodd" d="M 111.5 224 Q 115.3 222.8 114 226.5 L 107.5 231 Q 105 230.5 104.5 232 L 98.5 232 L 98 231.5 L 100.5 229 L 111.5 224 Z"/>
  <path fill="#ecc98f" fill-rule="evenodd" d="M 397.5 224 L 400.5 224 L 410.5 229 L 413 231.5 L 412.5 232 L 406.5 232 L 405.5 231 L 403.5 231 L 401.5 230 L 396 225.5 L 397.5 224 Z"/>
  <path fill="#ecc98f" fill-rule="evenodd" d="M 118.5 238 L 122 238 L 122 239.5 L 116.5 245 L 110.5 248 L 109 248 L 109 246.5 L 115.5 240 L 116.5 240 L 118.5 238 Z"/>
  <path fill="#ecc98f" fill-rule="evenodd" d="M 388 238 L 391.5 238 L 393.5 239 L 401 245.5 L 399.5 248 L 391.5 243 L 388 239.5 L 388 238 Z"/>
  <path fill="#ecc98f" fill-rule="evenodd" d="M 128.5 253 L 130 254.5 L 125.5 259 Q 122 259.5 120.5 262 L 119 262 L 119 260.5 L 124.5 255 L 128.5 253 Z"/>
  <path fill="#ecc98f" fill-rule="evenodd" d="M 381 253 L 384.5 254 L 389.5 259 L 391 259 Q 390.5 260.8 392 261.5 L 389.5 262 L 381 255.5 L 381 253 Z"/>
  <g class="pupils">
  <path fill="#dba95f" fill-rule="evenodd" d="M 176.5 195 L 186.5 195 L 187.5 196 L 190.5 196 Q 191 197.5 193.5 197 L 199.5 200 L 209 209.5 L 210 211.5 Q 208 212.5 210 213.5 L 211 215.5 L 211 217.5 L 212 218.5 L 212 226.5 L 211 227.5 L 211 230.5 L 210 231.5 L 210 233.5 L 208 237.5 L 201.5 245 L 189.5 251 Q 185.5 250 184.5 252 L 178.5 252 L 177.5 251 L 173.5 251 Q 173 249.5 170.5 250 L 164.5 247 L 158 241.5 L 158 240.5 L 155 237.5 L 153 233.5 L 153 231.5 L 152 230.5 Q 152.8 227.3 151 226.5 L 151 218.5 L 152 217.5 L 152 214.5 L 153 213.5 L 153 211.5 L 154 209.5 L 163.5 200 L 169.5 197 Q 172 197.5 172.5 196 L 175.5 196 L 176.5 195 Z M 194 205 L 194 207 L 191 211 L 191 214 L 192 216 L 195 218 L 201 218 L 204 215 L 204 209 Q 202 210 202 208 L 200 208 L 196 205 L 194 205 Z"/>
  <path fill="#dba95f" fill-rule="evenodd" d="M 325.5 197 L 339.5 197 Q 340.3 198.8 343.5 198 L 349.5 201 L 356 206.5 L 362 216.5 L 362 229.5 L 358 238.5 L 349.5 247 L 340.5 251 Q 336.5 250 335.5 252 L 329.5 252 L 328.5 251 L 324.5 251 Q 324 249.5 321.5 250 L 315.5 247 L 311.5 243 L 310 243 L 310 241.5 L 307 238.5 L 303 229.5 L 303 216.5 L 306 210.5 L 310.5 205 L 311.5 205 L 315.5 201 L 321.5 198 Q 324.8 198.8 325.5 197 Z"/>
  </g>
</svg>
