<svg xmlns="http://www.w3.org/2000/svg" viewBox="0 0 120 96" width="480" height="384">
  <!-- Nightowl Woodworks peeking-owl mark, single-colour cream (for dark photos) -->
  <g fill="#f5efe2">
    <path d="M14 84 Q16 44 38 27 Q46 21 52 20 L49 10 Q55 15 58 19 Q59 18.6 60 18.6 Q61 18.6 62 19 Q65 15 71 10 L68 20 Q74 21 82 27 Q104 44 106 84 Z
             M41 47.5 A11.5 11.5 0 1 0 41 70.5 A11.5 11.5 0 1 0 41 47.5 Z
             M79 47.5 A11.5 11.5 0 1 0 79 70.5 A11.5 11.5 0 1 0 79 47.5 Z" fill-rule="evenodd"/>
    <circle cx="44" cy="59" r="5"/>
    <circle cx="76" cy="59" r="5"/>
    <path d="M60 62 L55.5 72 Q60 76 64.5 72 Z"/>
    <g stroke="#f5efe2" stroke-width="2.4" stroke-linecap="round" fill="none">
      <path d="M24 54 L30 56"/>
      <path d="M24.5 61 L30.5 61"/>
      <path d="M96 54 L90 56"/>
      <path d="M95.5 61 L89.5 61"/>
    </g>
    <rect x="8" y="84" width="104" height="5" rx="2.5"/>
  </g>
</svg>
